<?xml version="1.0" encoding="utf-8"?>
<!-- Generator: Adobe Illustrator 22.1.0, SVG Export Plug-In . SVG Version: 6.00 Build 0)  -->
<svg version="1.1" baseProfile="basic" id="Layer_1"
	 xmlns="http://www.w3.org/2000/svg" xmlns:xlink="http://www.w3.org/1999/xlink" x="0px" y="0px" width="90px" height="90px"
	 viewBox="0 0 90 90" xml:space="preserve">
<g>
	<path fill="#D38700" d="M87.531,77.859H32.56c-1.363,0-2.469,1.105-2.469,2.469v3.192l0,0c0,1.41,1.143,2.554,2.554,2.554h54.801
		c1.41,0,2.554-1.143,2.554-2.554l0,0v-3.192C90,78.964,88.895,77.859,87.531,77.859z"/>
	<path fill="#E8B436" d="M87.531,69.644H32.56c-1.363,0-2.469,1.105-2.469,2.469v3.192c0,1.41,1.143,2.554,2.554,2.554h54.801
		c1.41,0,2.554-1.143,2.554-2.554v-3.192C90,70.749,88.895,69.644,87.531,69.644z"/>
	<path fill="#D38700" d="M87.531,61.429H32.56c-1.363,0-2.469,1.105-2.469,2.469v3.192c0,1.41,1.143,2.554,2.554,2.554h54.801
		c1.41,0,2.554-1.143,2.554-2.554v-3.192C90,62.535,88.895,61.429,87.531,61.429z"/>
	<path fill="#E8B436" d="M87.531,53.215H32.56c-1.363,0-2.469,1.105-2.469,2.469v3.192c0,1.41,1.143,2.554,2.554,2.554h54.801
		c1.41,0,2.554-1.143,2.554-2.554v-3.192C90,54.32,88.895,53.215,87.531,53.215z"/>
	<path fill="#D38700" d="M87.531,45H32.56c-1.363,0-2.469,1.105-2.469,2.469v3.192c0,1.41,1.143,2.554,2.554,2.554h54.801
		c1.41,0,2.554-1.143,2.554-2.554v-3.192C90,46.105,88.895,45,87.531,45z"/>
	<path fill="#E8B436" d="M87.531,36.785H32.56c-1.363,0-2.469,1.105-2.469,2.469v3.192l0,0c0,1.41,1.143,2.554,2.554,2.554h54.801
		C88.857,45,90,43.857,90,42.446l0,0v-3.192C90,37.891,88.895,36.785,87.531,36.785z"/>
	<path fill="#D38700" d="M87.531,28.571H32.56c-1.363,0-2.469,1.105-2.469,2.469v3.192c0,1.41,1.143,2.554,2.554,2.554h54.801
		c1.41,0,2.554-1.143,2.554-2.554v-3.192C90,29.676,88.895,28.571,87.531,28.571z"/>
	<path fill="#E8B436" d="M87.531,20.356H32.56c-1.363,0-2.469,1.105-2.469,2.469v3.192c0,1.41,1.143,2.554,2.554,2.554h54.801
		c1.41,0,2.554-1.143,2.554-2.554v-3.192C90,21.461,88.895,20.356,87.531,20.356z"/>
	<path fill="#D38700" d="M87.531,12.141H32.56c-1.363,0-2.469,1.105-2.469,2.469v3.192c0,1.41,1.143,2.554,2.554,2.554h54.801
		c1.41,0,2.554-1.143,2.554-2.554V14.61C90,13.247,88.895,12.141,87.531,12.141z"/>
	<path fill="#E8B436" d="M87.531,3.927H32.56c-1.363,0-2.469,1.105-2.469,2.469v3.192c0,1.41,1.143,2.554,2.554,2.554h54.801
		c1.41,0,2.554-1.143,2.554-2.554V6.395C90,5.032,88.895,3.927,87.531,3.927z"/>
</g>
<circle fill="#FFC843" cx="32.077" cy="54.043" r="32.077"/>
<circle fill="#D38700" cx="32.077" cy="54.043" r="24.948"/>
<path fill="#FFC843" d="M41.967,64.943c-0.55-1.267-2.024-1.846-3.289-1.297c-1.321,0.574-2.726,0.865-4.173,0.865
	c-3.476,0-6.553-1.706-8.464-4.317h8.11c1.381,0,2.5-1.119,2.5-2.5s-1.119-2.5-2.5-2.5H24.083c-0.043-0.386-0.07-0.777-0.07-1.174
	s0.027-0.788,0.07-1.174h10.068c1.381,0,2.5-1.119,2.5-2.5s-1.119-2.5-2.5-2.5h-8.11c1.91-2.611,4.988-4.317,8.464-4.317
	c1.448,0,2.852,0.291,4.174,0.865c1.269,0.553,2.739-0.03,3.289-1.297c0.55-1.267-0.031-2.739-1.297-3.289
	c-1.954-0.849-4.028-1.279-6.165-1.279c-6.347,0-11.809,3.841-14.2,9.317h-1.929c-1.381,0-2.5,1.119-2.5,2.5s1.119,2.5,2.5,2.5
	h0.697c-0.029,0.389-0.059,0.778-0.059,1.174s0.03,0.785,0.059,1.174h-0.697c-1.381,0-2.5,1.119-2.5,2.5s1.119,2.5,2.5,2.5h1.929
	c2.391,5.477,7.852,9.317,14.2,9.317c2.138,0,4.212-0.431,6.166-1.279C41.937,67.682,42.517,66.21,41.967,64.943z"/>
<g>
</g>
<g>
</g>
<g>
</g>
<g>
</g>
<g>
</g>
<g>
</g>
</svg>
