<?xml version="1.0" encoding="utf-8"?>
<!-- Generator: Adobe Illustrator 24.0.1, SVG Export Plug-In . SVG Version: 6.00 Build 0)  -->
<svg version="1.1" id="Camada_1" xmlns="http://www.w3.org/2000/svg" xmlns:xlink="http://www.w3.org/1999/xlink" x="0px" y="0px"
	 viewBox="0 0 500 331.1" style="enable-background:new 0 0 500 331.1;" xml:space="preserve">
<style type="text/css">
	.st0{display:none;}
	.st1{display:inline;}
	.st2{fill:#3AB0FF;}
	.st3{fill:#99FFFF;}
	.st4{fill:url(#SVGID_1_);}
	.st5{fill:url(#SVGID_2_);}
	.st6{fill:url(#SVGID_3_);}
	.st7{fill:#FFFFFF;}
	.st8{fill:url(#SVGID_4_);}
</style>
<g class="st0">
	<g class="st1">
		<g>
			<g>
				<path class="st2" d="M78.1,415v-27.7H97c16.8,0,19.5,0.4,22.7,3.4c4.3,4.2,5,14.2,1.1,19.8c-2.2,3.4-2.3,3.9,0,4.7
					c3.5,1.3,6.6,11.4,5.2,17.5c-1.9,8.6-6,10.1-28.1,10.1H78L78.1,415L78.1,415z M111.7,425.9v-5h-10.1h-10v5v5h10.1h10.1
					L111.7,425.9L111.7,425.9z M109.2,404.1c0-3.9-0.7-4.2-8.7-4.7l-8.9-0.5v5.2v5.2l8.9-0.5C108.5,408.3,109.2,408,109.2,404.1
					L109.2,404.1z"/>
			</g>
			<g>
				<path class="st2" d="M136,438.5c-4-3.9-4.2-5-4.2-23.1c0-26.5,0.5-27,24.2-27.7c16.9-0.7,17.7-0.5,21.9,3.6c4,4,4.2,5,4.2,24.3
					c0,19.6-0.1,20.1-4.3,23.5c-3.9,3.1-6.9,3.5-21.1,3.5C141.3,442.7,139.7,442.4,136,438.5L136,438.5z M168.4,414.6l0.5-15.6
					l-11.4,0.5l-11.4,0.5l-0.5,13.3c-0.4,7.4-0.1,14.2,0.4,15.6c0.7,1.6,3.6,2.2,11.4,1.9l10.6-0.5L168.4,414.6z"/>
			</g>
			<g>
				<path class="st2" d="M190.6,415v-27.7h18.7c10.2,0,20,0.7,21.6,1.6c6.6,3.5,7.7,18.8,1.9,22.4c-0.8,0.7,0.1,2.8,2.5,5.2
					c5.8,5.8,5.5,16.1-0.1,21.8c-3.9,4-5,4.2-24.3,4.2h-20.1V415H190.6z M224.7,428.4c2-5.4-0.7-7.5-9.9-7.5
					c-8.9,0-10.9,1.3-10.9,7.7C203.9,432.2,223.4,431.9,224.7,428.4z M222,403.8c0.5-4.7,0.4-4.7-8.7-4.7c-9.4,0-9.4,0-9.4,5.2v5
					l8.9-0.5C220.8,408.3,221.5,408,222,403.8L222,403.8z"/>
			</g>
			<g>
				<path class="st2" d="M261,435.1c0-5.9-2.2-11.6-10.1-26.9c-5.5-10.6-10.1-19.6-10.1-20.1s3.2-0.8,7.2-0.8h7.2l5.8,12.6
					c3.2,6.9,6,12.6,6.7,12.6c0.5,0,3.6-5.8,7.2-12.6c6.2-12.6,6.2-12.6,12.9-12.6c3.6,0,6.7,0.4,6.7,0.8s-4.6,9.9-10.1,21.2
					c-6.9,14.1-10.1,22.4-10.1,26.9c0,6.3,0,6.3-6.7,6.3h-6.7V435h0.1V435.1z"/>
			</g>
			<g>
				<path class="st2" d="M334.8,421v-21.8l-7.9-0.5c-7.7-0.5-8.1-0.7-8.6-5.9l-0.5-5.5h31.8c31.6,0,31.8,0,32.9,3.9
					c5.5,18.1,11.6,33,12.8,31c0.8-1.2,3.9-9.5,6.9-18.4l5.4-16.4h7.2c4,0,7.2,0.8,7.2,1.6c0,1.1-3.6,11.4-8.2,23.1
					s-8.9,23.5-9.4,25.9c-1.2,4.3-1.6,4.7-9.5,4.2l-8.3-0.5l-8.1-21c-4.3-11.6-9.3-23.6-10.6-26.9l-2.7-5.9l-0.1,5.5
					c0,5.2-0.1,5.4-7.5,5.4h-7.7l-0.4,19.8c0,10.7-0.1,20.7-0.1,21.8c0.1,1.3-2.3,2-7.2,2h-7.4L334.8,421L334.8,421z"/>
			</g>
			<g>
				<path class="st2" d="M212.9,359c-25.1-11.4-46.9-38-52.3-63.6c-7.7-36.5,8.1-73.5,39.6-93.9c4-2.5,7.2-5.4,7.2-6.6
					c0-1.1,2.3-1.9,5.5-1.6c2.8,0,7.7-1.1,10.4-2.3c4.6-2.2,5.2-3.4,6-12.4c1.5-12.8-1.2-21-7.2-23.9c-9.9-4.7-14.8-17.1-14.8-37.7
					c0-18.8,5.4-33.6,24.2-67.1c8.1-14.4,11-18.4,11-14.4c0,1.2-1.2,8.7-2.3,16.5c-2.2,13.4-1.5,20.1,2,20.1c0.8,0,3.2-3.1,5.4-6.7
					c2.3-3.6,4.6-6.7,5.2-6.7c0.5,0,2.5,3.5,4.6,7.7c2.2,4.2,6,10.6,8.7,14c6.2,7.9,8.1,15.3,9.4,37.9c0.8,14.8,0.5,19.6-1.5,24.6
					c-2.3,5.8-3.1,6.2-8.2,5.4c-10.9-1.9-12.8,8.7-4.2,22.3c2.3,3.5,4.7,9,5.2,12.6c1.5,8.3,5.2,9.4,8.7,2c4.2-8.6,5.8-8.6,5.8,0.5
					v8.2l10.6,6c13.7,8.1,26.5,21.1,33.9,35.1c7.5,14.4,7.5,16.8-0.1,3.9c-7.7-13-21-26.3-31.8-32c-4.8-2.5-9.3-4.2-9.7-3.6
					c-0.5,0.6,2,14,5.8,30c8.6,38.7,9.3,45.1,6,60.1c-3.1,14.8-9.4,27-18.9,36.5c-9.9,9.9-19.1,13-34.5,12.1
					c-10.4-0.7-13.6-1.6-20.1-6.2c-15.3-10.4-24.3-30.4-22.3-48.9c0.5-5.4,4-17.1,7.7-26.3c7.7-19.2,8.6-28.6,3.4-39.2
					c-1.9-3.9-3.4-8.1-3.4-9.3c0-8.7-21.5,12.1-30.9,29.7c-7.9,15.1-9.9,25.8-9,45.3c0.7,14.8,1.3,17.5,7.7,30.5
					c8.2,16.8,21.9,30.9,38.7,39.6C225.3,362.6,224.6,364.2,212.9,359L212.9,359z M257.5,320.9c3.6-4.2,8.3-11,10.4-15.1
					c3.9-8.2,3.6-16.3-1.2-36.7c-1.2-5.5-2.3-16-2.3-23v-13h-5c-3.9,0-5.9-1.3-9.3-6.2c-2.3-3.5-4.2-7.4-4.3-8.9
					c-0.1-4.7-3.1,3.9-3.1,9.7c-0.1,3.1-1.6,6.9-3.5,8.7c-2.7,2.7-3.4,5.5-3.4,14.8c0,7.5-1.5,15.7-4.3,24.6
					c-7.9,24.6-6.9,36.9,3.5,48.2C241.8,331.5,249,330.5,257.5,320.9L257.5,320.9z M248.9,132.2c5.8-7.2,6.7-12.8,3.6-23.4
					c-1.1-3.4-2.8-7-4.2-8.2c-1.9-1.6-2.7-1.1-3.9,3.6c-1.1,4-2.5,5.8-5.5,6.2c-4.8,0.7-6.6,2.8-6.6,8.9c0,6.9,6.6,20,9.9,19.6
					C242.9,139,245.8,135.9,248.9,132.2L248.9,132.2z"/>
			</g>
			<g>
				<path class="st2" d="M257.6,41.9c-2.5-4.7-2-12.8,0.8-15.1c3.5-3.1,4.6-1.5,5.5,8.1c0.5,6.6,0.1,8.3-2,9.3
					C260.3,44.7,258.6,43.9,257.6,41.9L257.6,41.9z"/>
			</g>
			<g>
				<path class="st2" d="M243.5,18.6c-0.7-4.3-2.7-7.9-6-10.9c-4.8-4-4.8-4.3-1.9-6c5.4-2.8,11.6-2,14.2,2c4,5.5,3.4,13.6-1.3,18
					l-3.9,3.6L243.5,18.6L243.5,18.6z"/>
			</g>
		</g>
		<g>
			<g>
				<path class="st3" d="M230,329.1c-10.6-11.6-11.9-32.7-3.5-58.3c4.7-14.4,5.4-23.1,2.5-33.2c-2-7.2-1.2-9.4,2.5-6.3
					c2,1.6,2.8,1.3,4.2-1.3c1.1-1.9,1.9-5,1.9-7.2s1.5-9.7,3.2-16.9c4.6-19.2,5.9-19.6,8.3-2.2c1.9,12.9,8.2,24.5,13.6,24.5
					c1.6,0,3.6-0.7,4.2-1.6c0.5-0.8,1.9-1.6,2.7-1.6c1.2,0,1.3,4.7,0.7,14c-0.8,10.2-0.5,16.8,1.6,25.5c1.5,6.6,3.2,18,3.6,25.4
					c1.2,16-1.5,23.5-13,36.5c-6.7,7.7-6.9,7.7-17.5,7.7C235.5,333.7,233.7,333.2,230,329.1L230,329.1z"/>
			</g>
			<g>
				<path class="st3" d="M237.1,145.6c-7.7-9.9-9.7-15.1-9.7-25.7c0-11,2.8-18.4,6-15.7c2.7,2.2,5.8,0.7,5.8-2.8
					c0-4.2,5-12.4,7.5-12.4c1.3,0,4.6,3.1,7,6.9c3.6,5.8,4.6,9.3,5.2,20.7c0.7,13.4,0.5,14.1-4.2,19.6c-2.8,3.2-6.3,8.2-7.9,11.3
					c-1.5,2.8-3.1,5.4-3.4,5.4C243.1,152.6,240.3,149.4,237.1,145.6L237.1,145.6z"/>
			</g>
		</g>
	</g>
	<g class="st1">
		<g>
			<path class="st2" d="M130.5,498.2c3.3-0.1,3.5-0.8,3.5-3.8v-14.9c0-2.9-0.4-3.5-3.5-3.8v-0.5h9v0.5c-3.2,0.2-3.5,0.8-3.5,3.8
				v14.9c0,2.9,0.4,3.6,3.5,3.8v0.5h-9V498.2z"/>
			<path class="st2" d="M140.1,499.2h-10v-1.4h0.5c2.9-0.1,3.1-0.5,3.1-3.3v-14.9c0-2.7-0.1-3.1-3.2-3.3H130v-1.4h10v1.4h-0.5
				c-2.9,0.1-3.2,0.6-3.2,3.3v14.9c0,2.7,0.2,3.2,3.1,3.3h0.5v1.4H140.1z M133,498.2h4c-1.3-0.6-1.5-1.6-1.5-3.8v-14.9
				c0-2.2,0.2-3.3,1.5-3.8h-4.1c1.3,0.6,1.5,1.6,1.5,3.8v14.9C134.6,496.6,134.3,497.7,133,498.2z"/>
		</g>
		<g>
			<path class="st2" d="M148.4,498.2c3.2-0.1,3.5-0.8,3.5-3.8v-14.9c0-3.1,0-3.5-3.3-3.8v-0.6h8.9c2.3,0,8.2,0.4,8.2,6.6
				c0,5.5-5.2,7.7-8.7,7.4l-3.1-0.8v6.2c0,2.9,0.2,3.4,4.1,3.6v0.5h-9.6L148.4,498.2L148.4,498.2L148.4,498.2z M154.1,487.4
				c0.5,0.2,1.4,0.6,3.2,0.6c3.3,0,6.1-1.8,6.1-6.1c0-4.1-2.3-6-6.9-6c-1.1,0-1.5,0-1.9,0.1c-0.2,0-0.4,0.1-0.4,0.9v10.4h-0.1V487.4
				z"/>
			<path class="st2" d="M158.5,499.2H148v-1.4h0.5c2.9-0.1,3.1-0.5,3.1-3.3v-14.9c0-2.9,0-3.1-2.8-3.3h-0.5v-1.5h9.4
				c7.2,0,8.7,3.8,8.7,7c0,2.2-0.8,4.2-2.5,5.6c-1.8,1.6-4.5,2.5-6.8,2.2l-2.5-0.7v5.6c0,2.6,0,2.9,3.6,3.2h0.5v1.4L158.5,499.2
				L158.5,499.2z M151,498.2h4.2c-1.5-0.5-1.6-1.5-1.6-3.8V477c0-0.5,0-1.1,0.5-1.3h-2.8c1.3,0.5,1.3,1.6,1.3,3.8v14.9
				C152.4,496.6,152.2,497.7,151,498.2z M156.5,488.5l0.6,0.1c2,0.2,4.5-0.6,6-2c1.4-1.3,2.1-2.9,2.1-4.9c0-3.6-2.1-5.6-6.3-6
				c3.2,0.7,4.8,2.7,4.8,6.2c0,4.1-2.5,6.6-6.6,6.6C157,488.5,156.8,488.5,156.5,488.5z M154.5,487.2c0.5,0.2,1.4,0.4,2.7,0.4
				c2.1,0,5.6-0.7,5.6-5.6c0-3.8-2.1-5.5-6.5-5.5c-0.9,0-1.5,0-1.8,0.1c0,0.1,0,0.2,0,0.5v10.2l0,0V487.2z"/>
		</g>
		<g>
			<path class="st2" d="M179.8,498.2c3.8-0.2,4-0.8,4-3.6v-18.4h-2.3c-4.9,0-5.4,0.8-6.6,4.8h-0.6c0.2-2.2,0.4-4.5,0.5-6.6h0.6
				c0.2,0.5,0.5,0.7,0.8,0.8c0.4,0.1,0.7,0.1,1.2,0.1h15.3c0.9,0,1.3-0.2,1.8-0.9h0.6c-0.1,1.8,0.1,4.1,0.4,6.3l-0.6,0.1
				c-0.9-4.2-2.3-4.8-5.5-4.8h-3.3v18.4c0,2.8,0.2,3.5,4.1,3.6v0.5h-10.1v-0.4h-0.3V498.2z"/>
			<path class="st2" d="M190.4,499.2h-11v-1.4h0.5c3.5-0.2,3.5-0.6,3.5-3.2v-17.8h-1.9c-4.7,0-4.9,0.6-6.1,4.5l-0.1,0.4h-1.5v-0.5
				c0.2-2.3,0.4-4.7,0.5-6.6v-0.5h1.3l0.1,0.2c0.2,0.5,0.5,0.5,0.6,0.6c0.2,0.1,0.6,0.1,1.1,0.1h15.3c0.8,0,0.9-0.1,1.4-0.7l0.1-0.2
				l1.4,0.1v0.5c-0.1,1.5,0.1,3.6,0.2,5.6l0.1,1.2l-1.5,0.4l-0.1-0.5c-0.8-4-2.1-4.3-5-4.3h-2.8v17.8c0,2.6,0,3.1,3.8,3.2h0.5v1.2
				h-0.4V499.2z M182.6,498.2h4.3c-1.5-0.5-1.6-1.5-1.6-3.8v-18.8h-0.9v18.8C184.3,496.7,184,497.8,182.6,498.2z M175.2,475
				c0,1.3-0.1,2.7-0.2,4.2c0.8-2.5,1.8-3.3,4.7-3.5h-2.3c-0.6,0-0.9,0-1.4-0.1C175.8,475.5,175.4,475.2,175.2,475z M190.4,475.7
				c2.1,0.2,3.4,0.9,4.2,3.4c-0.1-1.5-0.2-2.9-0.2-4.2c-0.5,0.6-0.9,0.8-1.9,0.8L190.4,475.7L190.4,475.7z"/>
		</g>
		<g>
			<path class="st2" d="M228.1,475.8c-2.7,0.4-2.9,0.9-4.6,4.1c-0.6,1.1-5.5,11.6-8.6,19.2h-0.5c-2.5-6.7-5.2-13.3-7.9-20.1
				c-1.1-2.7-1.6-3.2-3.9-3.3v-0.5h8.1v0.5c-1.9,0.2-2.7,0.4-2.7,1.3c0,0.4,0.1,0.7,0.4,1.3c0.8,2.2,3.8,9.5,6.9,17.3l0,0
				c0.7-1.5,7.2-16.1,7.2-18.2c0-1.2-0.9-1.3-2.8-1.5v-0.5h8.5L228.1,475.8L228.1,475.8L228.1,475.8z"/>
			<path class="st2" d="M215.3,499.6h-1.2l-0.1-0.4c-1.8-4.7-3.6-9.5-5.5-14.1c-0.8-2-1.5-3.9-2.3-5.9c-1.1-2.6-1.4-2.9-3.5-3.1
				h-0.5v-1.4h9v1.4h-0.5c-2,0.2-2.2,0.4-2.2,0.8c0,0.2,0.1,0.6,0.4,1.2c0.8,2.1,3.5,9,6.5,16.2c1.6-3.8,6.7-15.4,6.7-17
				c0-0.6-0.2-0.7-2.2-1.1l-0.6-0.1v-1.4h9.4v1.4h-0.4c-2.5,0.4-2.6,0.7-4.2,3.9c-0.6,1.1-5.5,11.5-8.6,19.1L215.3,499.6z
				 M204.9,475.7c1.1,0.5,1.5,1.4,2.2,3.2c0.8,2,1.5,3.9,2.3,5.9c1.8,4.5,3.6,9,5.3,13.6c0.6-1.4,1.2-2.9,1.9-4.5
				c-0.4,0.9-0.7,1.5-0.8,1.8l-0.1,0.2h-0.6l-0.1-0.2c-3.2-7.5-6.1-15-6.9-17.3c-0.2-0.6-0.4-1.1-0.4-1.5c0-0.7,0.4-1.1,0.9-1.3
				h-3.8v0.1H204.9z M221.8,475.7c0.8,0.2,1.3,0.7,1.3,1.6c0,1.3-2.3,7.3-4.5,12c2.1-4.8,4.1-8.9,4.5-9.6c1.2-2.5,1.8-3.4,3.1-4
				H221.8z"/>
		</g>
		<g>
			<path class="st2" d="M266.5,483.5h8.6v0.5c-2.8,0.5-3.3,1.2-4.3,3.1c-1.1,1.4-1.9,3.1-3.1,4.6c1.1,1.2,4.9,6,5.6,7.6l-0.4,0.4
				c-0.9-0.4-2.8-1.2-3.3-1.6c-0.5-0.5-1.9-2.9-3.4-4.5c-3.3,4.2-5.5,5.8-8.5,5.8c-4.5,0-7-3.3-7-6.2c0-3.9,3.2-5.6,6.1-7.5
				c-2-1.5-3.2-2.9-3.2-4.8c0-3.2,2.8-5.6,5.6-5.6c2.7,0,5.2,1.9,5.2,4.7c0,1.8-1.2,2.9-1.6,3.3l-3.1,2c1.5,1.1,4.8,3.5,7.2,6
				c1.8-2.5,2.5-4.8,2.5-5.5c0-0.9-0.8-1.3-3.1-1.5L266.5,483.5z M265.8,492.7c-1.9-2.2-4.8-4.6-8.2-6.8c-3.5,2.1-4.5,3.8-4.5,6.2
				c0,3.4,3.1,5.3,5.5,5.3C261.7,497.4,264.1,495.3,265.8,492.7z M255.8,479.7c0,2.3,1.5,3.8,3.4,4.9c2.2-1.2,3.3-2.8,3.3-4.9
				s-1.4-3.8-3.4-3.8C257.2,475.9,255.8,477.3,255.8,479.7z"/>
			<path class="st2" d="M273.2,500l-0.2-0.1c-0.1,0-2.7-1.1-3.4-1.8c-0.1-0.1-0.4-0.5-0.6-0.7c-0.6-0.8-1.5-2.2-2.6-3.3
				c-3.2,4-5.5,5.5-8.5,5.5c-4.7,0-7.5-3.5-7.5-6.7c0-3.8,2.8-5.6,5.6-7.4l0.2-0.1c-1.5-1.2-2.8-2.7-2.8-4.7c0-3.6,3.2-6.1,6.1-6.1
				c3.2,0,5.6,2.2,5.6,5.2c0,2-1.4,3.3-1.9,3.6l-2.5,1.5c1.6,1.2,4.2,3.2,6.2,5.3c1.4-2.2,2.1-4.1,2.1-4.7c0-0.5-0.2-0.7-2.6-1.1
				H266l-0.1-1.4h9.6v1.4l-0.4,0.1c-2.6,0.4-2.9,0.9-4,2.8c-0.5,0.6-0.8,1.2-1.2,1.8c-0.6,0.8-1.1,1.6-1.8,2.6
				c1.3,1.5,4.7,5.9,5.5,7.5l0.1,0.4L273.2,500z M266.4,492.8l0.4,0.4c1.2,1.2,2.3,2.8,3.1,3.9c0.2,0.4,0.4,0.6,0.5,0.7
				c0.2,0.2,1.4,0.8,2.5,1.2c-1.2-1.9-4.3-5.9-5.3-6.9l-0.1-0.1v0.1l-0.4-0.5c-2.2-2.5-5.4-4.8-7-6l-0.4-0.2l0,0l-0.2-0.1
				c-1.5-0.9-3.6-2.6-3.6-5.3c0-1.3,0.4-2.2,1.1-3.1c-1.2,0.9-2,2.3-2,4c0,1.5,0.8,2.8,2.9,4.3l0.6,0.4l0,0l0.1,0.1
				c3.5,2.2,6.6,4.7,8.3,6.9L266.4,492.8L266.4,492.8z M254.4,487.8c-1.8,1.3-3.2,2.8-3.2,5.3c0,2.8,2.6,5.8,6.6,5.8
				c1.9,0,3.5-0.7,5.4-2.6c-1.4,1.1-3.1,1.6-4.6,1.6c-2.9,0-6-2.1-6-5.8C252.6,490.4,253.2,489.1,254.4,487.8z M257.6,486.5
				c-3.4,2-4,3.6-4,5.6c0,3.3,2.9,4.8,5,4.8c2.9,0,5.2-2.2,6.6-4.1C263.6,490.8,260.9,488.6,257.6,486.5z M268.7,483.9
				c0.8,0.2,1.4,0.7,1.4,1.6c0,0.6-0.4,1.9-1.2,3.5c0.1-0.2,0.2-0.4,0.4-0.6c0.4-0.6,0.8-1.2,1.2-1.8c0.8-1.4,1.3-2.2,2.8-2.8
				L268.7,483.9L268.7,483.9z M259.1,476.4c-1.6,0-2.8,1.3-2.8,3.3c0,1.8,0.9,3.1,2.9,4.3c1.9-1.1,2.8-2.5,2.8-4.3
				C262,477.8,260.7,476.4,259.1,476.4z M259.8,475.6c1.9,0.4,3.2,2,3.3,4.1c0,1.4-0.5,2.6-1.3,3.6l1.1-0.7c0.4-0.2,1.5-1.3,1.5-2.8
				C264.1,477.2,261.9,475.7,259.8,475.6z"/>
		</g>
		<g>
			<path class="st2" d="M296.4,498.2c3.2-0.1,3.5-0.8,3.5-3.8v-14.9c0-3.1,0-3.5-3.3-3.8v-0.6h8.9c2.3,0,8.2,0.4,8.2,6.6
				c0,5.5-5.2,7.7-8.7,7.4l-3.1-0.8v6.2c0,2.9,0.2,3.4,4.1,3.6v0.5h-9.6V498.2L296.4,498.2L296.4,498.2z M301.9,487.4
				c0.5,0.2,1.4,0.6,3.2,0.6c3.3,0,6.1-1.8,6.1-6.1c0-4.1-2.3-6-6.9-6c-1.1,0-1.5,0-1.9,0.1c-0.2,0-0.4,0.1-0.4,0.9v10.4h-0.1V487.4
				z"/>
			<path class="st2" d="M306.5,499.2h-10.6v-1.4h0.5c2.9-0.1,3.1-0.5,3.1-3.3v-14.9c0-2.9,0-3.1-2.8-3.3h-0.5v-1.5h9.4
				c7.2,0,8.7,3.8,8.7,7c0,2.2-0.8,4.2-2.5,5.6c-1.8,1.6-4.5,2.5-6.8,2.2l-2.5-0.7v5.6c0,2.6,0,2.9,3.6,3.2h0.5v1.4L306.5,499.2
				L306.5,499.2z M298.9,498.2h4.2c-1.5-0.5-1.6-1.5-1.6-3.8V477c0-0.5,0-1.1,0.5-1.3h-2.8c1.3,0.5,1.3,1.6,1.3,3.8v14.9
				C300.4,496.6,300.2,497.7,298.9,498.2z M304.4,488.5l0.6,0.1c2,0.2,4.5-0.6,6-2c1.4-1.3,2.1-2.9,2.1-4.9c0-3.6-2.1-5.6-6.3-6
				c3.2,0.7,4.8,2.7,4.8,6.2c0,4.1-2.5,6.6-6.6,6.6C304.9,488.5,304.6,488.5,304.4,488.5z M302.4,487.2c0.5,0.2,1.4,0.4,2.7,0.4
				c2.1,0,5.6-0.7,5.6-5.6c0-3.8-2.1-5.5-6.5-5.5c-0.9,0-1.5,0-1.8,0.1c0,0.1,0,0.2,0,0.5v10.2h0V487.2z"/>
		</g>
		<g>
			<path class="st2" d="M336.8,494.6c-0.5,1.2-0.7,2.3-1.2,4.1h-13.1v-0.6c2.1-2.1,4.1-4.1,6-6.3c2-2.2,5-5.2,5-8.9
				c0-3.4-1.8-5.2-4.7-5.2c-2.8,0-4.3,2.2-5.2,3.5l-0.6-0.5l2-2.8c1.1-1.1,2.7-2,4.7-2c2.9,0,5.9,2.1,5.9,5.8c0,3.3-1.8,5.6-4.8,8.9
				l-5.9,6.3h7.7c1.9,0,2.5-0.2,3.4-2.5L336.8,494.6z"/>
			<path class="st2" d="M336,499.2h-14v-1.3l0.1-0.1c2-2,4.1-4.1,6-6.2c0.2-0.2,0.5-0.6,0.7-0.8c1.9-2.1,4.1-4.7,4.1-7.7
				c0-3.1-1.5-4.7-4.2-4.7c-2.6,0-4.1,2.2-4.8,3.3l-0.2,0.5l-1.3-1.1l2.2-3.2c1.3-1.4,3.2-2.2,5-2.2c3.1,0,6.3,2.2,6.3,6.2
				c0,3.3-1.6,5.8-4.9,9.2l-5,5.5h6.7c1.6,0,2.1-0.1,2.9-2.2l0.1-0.4l1.6,0.5l-0.1,0.5c-0.4,1.2-0.7,2.2-1.2,4L336,499.2z
				 M323.1,498.2h12.2c0.2-1.1,0.5-1.9,0.7-2.6c-0.8,1.4-1.6,1.6-3.3,1.6H324C323.6,497.7,323.3,498,323.1,498.2z M328.8,477.2
				c3.3,0,5.2,2.1,5.2,5.6c0,2.3-1.1,4.3-2.5,6.1c2.3-2.7,3.5-4.7,3.5-7.3c0-3.4-2.7-5.3-5.3-5.3c-1.6,0-3.3,0.7-4.3,1.9l-0.2,0.4
				C326,477.8,327.2,477.2,328.8,477.2z"/>
		</g>
		<g>
			<path class="st2" d="M346.1,498.2c3.2-0.1,3.5-0.8,3.5-3.8v-14.9c0-3.1,0-3.5-3.3-3.8v-0.6h8.9c2.3,0,8.2,0.4,8.2,6.6
				c0,5.5-5.2,7.7-8.7,7.4l-3.1-0.8v6.2c0,2.9,0.2,3.4,4.1,3.6v0.5h-9.6V498.2L346.1,498.2L346.1,498.2z M351.7,487.4
				c0.5,0.2,1.4,0.6,3.2,0.6c3.3,0,6.1-1.8,6.1-6.1c0-4.1-2.3-6-6.9-6c-1.1,0-1.5,0-1.9,0.1c-0.2,0-0.4,0.1-0.4,0.9v10.4h-0.1V487.4
				z"/>
			<path class="st2" d="M356.3,499.2h-10.6v-1.4h0.5c2.9-0.1,3.1-0.5,3.1-3.3v-14.9c0-2.9,0-3.1-2.8-3.3H346v-1.5h9.4
				c7.2,0,8.7,3.8,8.7,7c0,2.2-0.8,4.2-2.5,5.6c-1.8,1.6-4.5,2.5-6.8,2.2l-2.5-0.7v5.6c0,2.6,0,2.9,3.6,3.2h0.5v1.4L356.3,499.2
				L356.3,499.2z M348.6,498.2h4.2c-1.5-0.5-1.6-1.5-1.6-3.8V477c0-0.5,0-1.1,0.5-1.3h-2.8c1.3,0.5,1.3,1.6,1.3,3.8v14.9
				C350.2,496.6,349.9,497.7,348.6,498.2z M354.2,488.5l0.6,0.1c2,0.2,4.5-0.6,6-2c1.4-1.3,2.1-2.9,2.1-4.9c0-3.6-2.1-5.6-6.3-6
				c3.2,0.7,4.8,2.7,4.8,6.2c0,4.1-2.5,6.6-6.6,6.6C354.6,488.5,354.4,488.5,354.2,488.5z M352.2,487.2c0.5,0.2,1.4,0.4,2.7,0.4
				c2.1,0,5.6-0.7,5.6-5.6c0-3.8-2.1-5.5-6.5-5.5c-0.9,0-1.5,0-1.8,0.1c0,0.1,0,0.2,0,0.5v10.2h0V487.2z"/>
		</g>
	</g>
</g>
<text transform="matrix(1 0 0 1 -67 348)" class="st0" style="font-family:'MyriadPro-Regular'; font-size:12px;">linear-gradient(to top left,#22255c, #3db683)</text>
<linearGradient id="SVGID_1_" gradientUnits="userSpaceOnUse" x1="-151" y1="157.475" x2="-104.05" y2="157.475">
	<stop  offset="0" style="stop-color:#3DB683"/>
	<stop  offset="1" style="stop-color:#3AB0FF"/>
</linearGradient>
<rect x="-151" y="134" class="st4" width="47" height="47"/>
<g>
	<g>
		<linearGradient id="SVGID_2_" gradientUnits="userSpaceOnUse" x1="355.2533" y1="145.0514" x2="435.6494" y2="145.0514">
			<stop  offset="0" style="stop-color:#3DB683"/>
			<stop  offset="1" style="stop-color:#3AB0FF"/>
		</linearGradient>
		<path class="st5" d="M435.5,114.9c0.2,2.2-2.4,2.5-2,0.8c0.2-0.5,0.2-1,0.2-1.5c0-1.4,0.5-3.1-0.9-3.4c-0.2-0.1-0.4-0.1-0.6-0.2
			c-2-1.1-5.1-2.2-7.5-2.6c-0.4-0.1-0.8-0.2-1.2-0.3c-0.9-0.2-1.7-0.6-2.6-0.2c-0.2,0.2-0.6,0.2-0.9,0.1c-1.4-0.5-2.8,0.1-4.2,0.2
			c-1.8,0.2-3.7,0.2-5.5,0.4c-1.6,0.2-3.2,0.6-4.9,0.8c-0.7,0.1-1.4,0.1-2.1,0.2c-0.8,0.1-3-0.1-3.5,0.7l-0.1,0.1
			c-1.5,0.2-4.2,7.1-4.7,8.3c-0.5,1.4-1.2,2.7-1.8,4c-0.2,0.2-0.3,0.6-0.5,0.8c-1.5,1.5-1.8,3.6-2.7,5.4c-0.3,0.6-0.9,1.3-0.6,2.2
			c0.1,0.2-0.6,0.7-1,1c-0.8,0.6-0.8,0.6-0.4,1.5c0.3,0.5,0.2,1-0.2,1.2c-1.2,0.6-1.3,1.8-1.7,2.7c-0.2,0.7-0.2,1.5-1,1.9
			c0,0.1-0.1,0.2-0.1,0.2c0.6,0.9-0.2,1.2-0.7,1.8c-0.1,0.2-0.1,0.4-0.2,0.6c-0.2,0.6-0.4,1.2-0.6,1.8c-0.3,0.8-0.8,1.5-0.9,2.3
			c-0.2,1.1-0.8,2.1-0.8,3.2c0.1,0.5-0.4,1-0.6,1.4c-0.5,0.7-0.9,1.4-1,2.3c-0.2,0.8-0.3,1.8-0.8,2.5c-1.1,1.5-1.4,3.4-2.2,5.1
			c-1,2.1-1.8,4.3-2.7,6.6c-0.6,1.8-1,3.8-1.4,5.7c0,0.2,0,0.4-0.1,0.5c-1.4,1.8-1.6,3.9-1.9,6.1c0,0.1-0.1,0.2-0.2,0.5
			c-0.1-0.2-0.2-0.2-0.3-0.3c-0.1-0.2-0.2-0.2-0.3-0.5c-0.2,0.3,0.6,1.4,0.6,1.7c-0.3,1-0.6,2.1-0.7,3.1c-0.2,0.3-0.1,0.6-0.2,1
			c-0.1,0.2-0.2,0.6-0.3,0.7c-0.7,0.4-0.5,1-0.4,1.5c0.2,0.6,0.3,1.1,0.4,1.8c0.1,0.5-0.2,1,0.3,1.4c0.2,0.2,0.2,0.6,0.2,1
			c-1.4,0.1-2.5-0.4-3.3-1.5c-0.7-1-1.8-1.7-1.8-3.1c-0.2-1.8-0.5-3.8-0.3-5.6c0.2-4.1,0.7-8.2,1.6-12.2c1-3.9,1.7-7.9,2.8-11.6
			c1.5-5.3,3.2-10.5,4.9-15.7c1.2-3.4,4.6-12,5.7-15.3c0.9-2.5-0.3,0.2,0.6-2.3c0.1-0.2,2.9-7.1,3-7.7c-0.4,0.3-0.6,0.5-0.8,0.6
			c-0.2,0.2-0.4,0.5-0.6,0.5c-0.8,0.1-1.4,0.6-2,1c-1.5,0.8-3.1,1.5-4.7,2.2c-0.6,0.2-1,0.6-1.5,1c-2.4,1.5-4.7,3-7.2,4.3
			c-0.3,0.2-0.7,0.3-1,0.6c-1.2,1-2.5,2.1-3.7,3.1c-0.3,0.2-3.3,0.6-3.6,0.3c-0.2-0.1-0.3-0.3-0.4-0.5c-0.6-1.3-1.3-2.5-1.8-3.8
			c-0.6-1.8-1.4-2.3-0.5-4.3c0.1-0.2,0.2-0.5,0.3-0.6c1.3-0.3,1.9-1.5,3-2.1c2.4-1.4,4.7-2.9,7-4.3c2.7-1.5,5.3-3,8-4.4
			c1.5-0.8,3.1-1.4,4.6-2c2.4-1,4.9-2.1,7.4-2.9c1.4-0.4,2.2-1.1,2.4-2.7c0.2-1.2,1.7-1.8,2.7-1c0.6,0.4,1.2,0.5,1.8,0.2
			c0.2-0.1,0.5-0.2,0.6-0.1c0.8,0.5,1.5,0.1,2.3-0.1c3-0.6,5.9-1.4,8.9-1.9c1.5-0.2,3.2-0.6,4.7-0.3c1.2,0.3,2.3,0,3.5,0.1
			c1.4,0,3.1,0,4.4,0.3c3.5,0.9,7.2,1.2,10.4,3.1c1.8,1,3.5,2.1,4.8,3.7c0.2,0.5,0.7,0.9,1.2,1.3c0.9,0.9,1.5,1.8,1.7,3.1
			c0,0.4,0.3,0.8,0.2,1.2c0.1,0.8,0.2,1.6,0.2,2.5C435.6,114.4,435.5,114.7,435.5,114.9z M365.9,181.1c-0.1-0.2-0.2-0.3-0.3-0.6
			l-0.1,1c0.1,0.1,0.2,0.1,0.2,0.1C365.8,181.4,365.9,181.2,365.9,181.1z M366.3,176.5c-0.8,0.6-0.7,1.3-0.3,2.1
			C366.6,177.9,366.6,177.3,366.3,176.5z M366.7,175.7c0.1-0.6,0.2-1.1,0.3-1.7c0.3-1.8,0.7-3.6,1-5.5c0.4-1.8,0.8-3.5,1.1-5.2
			c0.1-0.2-0.1-0.4-0.2-0.6c-1.4,4.3-2.4,8.6-2.7,13C366.4,175.7,366.5,175.7,366.7,175.7z M371.6,162.7c0.2-0.8,0.1-1.8,0.1-2.6
			c-0.1,0-0.2-0.1-0.4-0.1c-0.1,0.3-0.2,0.6-0.3,1c-0.2,0.6-0.2,1.1-0.4,1.8c-0.5,2-1.4,3.9-1.4,5.9c-0.1,1.5-0.8,3-1,4.5
			c-0.5,2.4-0.9,4.9-1.3,7.4c0,0.1,0.2,0.2,0.3,0.5c0.2-0.5,0.3-0.7,0.3-1c0.2-0.9,0.2-1.8,0.5-2.7c0.5-1.4,0.8-2.8,1.1-4.3
			c0.2-1.8,0.5-3.9,1.4-5.5C371.1,165.9,371.2,164.3,371.6,162.7z M369.2,161.5c0.6-0.5,0.6-1.1,0.6-1.8
			C368.8,160,369.3,160.8,369.2,161.5z M370,159.6c0.2-0.3,0.6-0.6,0-1.1C369.5,158.8,369.6,159.2,370,159.6z M370,158.4
			c0.7-0.8,1.4-3.1,1.4-4.3c-0.2,0-0.2,0-0.3-0.1C370.7,155.4,370.4,156.7,370,158.4z M370.4,175c-0.1,0.3,0.7,1.6,0.6,1.9
			c0.2,0.1,0-1,0.1-1C371.5,175.7,371.2,175.5,370.4,175z M373.6,152.1c-0.6,2.4-1.4,4.7-2.1,6.9c0.1,0.2,0.2,0.2,0.4,0.4
			c0.2-0.2,0.7-0.4,0.8-0.6c0.2-0.4,0.6-1,0.4-1.4c-0.2-1.2,0.5-2,0.9-3.1C374.2,153.7,374.5,152.8,373.6,152.1z M371.5,153.1
			c0.1,0,0.2,0,0.2,0c0-0.2,0-0.5,0.1-0.7c-0.1,0-0.2,0-0.3,0V153.1z M387.2,105.5c-0.8,0.2-1.4,0.4-2,0.6c-0.5,0.2-1,0.4-1.5,0.6
			c-1.4,0.6-3,1.3-4.5,1.9c-0.4,0.2-0.8,0.4-1.1,0.6c-0.6,0.2-1.2,0.6-1.9,0.7c-0.5,0.1-1,0.1-1,0.8c0,0.2-0.3,0.4-0.5,0.6
			c-0.5,0.3-1.1,0.6-1.6,1c-0.2,0.1-0.2,0.5-0.4,0.7c0.3,0.1,0.7,0.2,1,0.1c0.4-0.2,0.8-0.6,1.3-0.7c1.4-0.5,2.8-1,4.2-1.4
			c0.4-0.1,0.8,0,1.3-0.1c-0.1-0.3-0.1-0.7,0.6-0.9c1.4-0.5,2.8-1.1,4.2-1.6C386.7,107.9,387,107.5,387.2,105.5z M374.6,162.8
			c-0.5,0.2-0.8,0.3-1.1,0.4c0.1,0.2,0.1,0.3,0.2,0.4C374.2,164,374.5,163.6,374.6,162.8z M375.8,146.1c-0.9,1.9-1.4,3.6-1.8,5.5
			c1.2-0.5,1.2-1.5,1.5-2.2C376,148.4,376.5,147.4,375.8,146.1z M376.6,143.8c-0.3,0.6-0.6,1.2-1,2
			C377,145.3,377.2,144.7,376.6,143.8z M378.8,139.2c-1,0.2-1,0.2-0.6,1.4C378.4,140.2,378.6,139.8,378.8,139.2z M422.4,102.9
			c0.2,0,0.4,0.1,0.6,0.1c0.6,0.1,0.7-0.2,0.6-0.9c-2.2-0.2-4.1-1.2-6.3-1.4c-1.2-0.2-2.3-0.5-3.5-0.2c-1,0.2-2,0.2-3.1,0.2
			c-1.9,0.1-3.8,0.1-5.7,0.6c-0.2,0.1-0.2,0.2-0.4,0.2c0.2,0.3,0.2,0.6,0.4,1.1c1.5-0.2,3.1-0.3,4.5-0.5c0.3,0,0.6-0.1,1-0.1
			c2.7,0.2,5.4,0.3,8.1,0.5C419.8,102.5,421.1,102.7,422.4,102.9z M421.5,105.1c-0.2-0.1-0.5-0.2-0.8-0.2c0,0,0,0.1,0,0.2
			c0.2,0.1,0.4,0.2,0.6,0.3C421.4,105.3,421.4,105.2,421.5,105.1z M424.6,105.8c-0.6-0.5-1.3-0.6-2.1-0.2
			C423.3,105.7,423.9,106.2,424.6,105.8z M427.1,106.6c0-0.1,0-0.2,0-0.2c-0.2,0-0.3,0-0.5,0c0,0.1,0,0.2,0,0.2H427.1z"/>
		<linearGradient id="SVGID_3_" gradientUnits="userSpaceOnUse" x1="399.2768" y1="136.1617" x2="470.4436" y2="136.1617">
			<stop  offset="0" style="stop-color:#3DB683"/>
			<stop  offset="1" style="stop-color:#3AB0FF"/>
		</linearGradient>
		<path class="st6" d="M470.3,102c-0.4,1.2-0.6,2.4-1,3.6c-0.2,0.6-0.4,1.3-0.6,2c-0.2,0.6-0.6,1-0.2,1.6c-0.6,0.4-0.4,1-0.3,1.4
			c-0.2,0.2-0.5,0.3-0.7,0.5c0,0.8-0.4,1.6-0.9,2.5c-0.4,0.8-1,1.5-1.1,2.5c-0.1,0.4-0.6,0.7-0.8,1.2c-0.4,0.7-0.7,1.5-1.1,2.3
			c0,0.1-0.2,0.2-0.2,0.3c-0.6,2.4-1.8,4.2-3,6c-1.3,1.9-2.6,3.7-3.5,5.9c-0.3,0.7-1,1.4-1.4,2c-0.7,0.9-1.4,1.8-1.8,2.7
			c-0.5,1-1.1,1.8-1.7,2.7c-0.6,1-1.4,1.8-2.2,2.7c-0.8,0.8-1.5,1.8-2.1,2.6c-0.1,0.1-0.2,0.2-0.2,0.2c-0.8,2.1-2,3.6-3.1,4.7
			c-0.3,0.4-0.6,1-0.9,1.4c-1.6,2-3.1,4-4.7,5.9c-0.2,0.3-0.5,0.6-0.7,0.9c-1,1.4-2.2,2.7-3.5,3.9c-0.6,0.6-1.2,1.4-1.7,2.2
			c-0.8,1.1-1.5,2.2-2.3,3.3c-0.6,0.6-1.1,1.3-1.6,1.8c-0.3,0.2-0.6,0.4-0.6,0.7c-1,1.8-2.5,3.3-3.7,4.9c-0.9,0.9-1.7,1.4-2.5,2.2
			c-1.4,1.4-2.8,3-4.2,4.4c-0.3,0.4-1,0.6-1.2,1c-0.8,1.1-1.6,2-2.9,2.1c-1.4,1.1-2.7,0.4-4-0.1c-0.3-0.2-0.6-0.4-1.1-0.2
			c-0.6,0.2-1.1,0-1.6-0.4c-0.1-0.2-0.2-0.2-0.3-0.3c-2.2-0.6-3.5-2.6-5-4.2c-1.3-1.3-1.8-3-2.2-4.7c-0.6-2.7-0.6-5.5-0.5-8.4
			c0.3-3.5,0.9-7,1.8-10.4c0.7-2.7,1.4-5.5,1.9-8.3c0.6-2.3,1.4-4.7,2.1-7c0.6-1.8,1.1-3.5,1.6-5.1c0.9-2.6,1.8-5.1,2.6-7.5
			c0.2-0.6,0.5-1.2,0.6-1.8c1-3.3,2.2-6.5,3.4-9.7c0.4-1,1.3-1.6,2.2-1.9c0.2-0.1,0.5,0,0.8,0c-0.2,0.2-0.5,0.5-0.7,0.8
			c0.1,0.1,0.1,0.2,0.2,0.2c0.4-0.2,0.9-0.3,1.1-0.4c0.5-0.2,0.9-0.2,1.4-0.2c-0.2,0.4-0.2,0.7-0.3,1.1c0.9,0.2,1.8-0.2,2.7,0.2
			c-0.1,0.3-0.2,0.6,0.2,0.6c0.6,0.2,1,0.6,1.4,1c0.6,0.6,0.6,1.4,0.2,2.1c0,0.1-0.1,0.2-0.2,0.2c-1.1,1.4-1.5,3.1-2.5,4.7
			c-0.2,0.4-0.2,0.8-0.3,1.2c-0.1,0.6-0.2,1.3-0.8,1.7c-0.2,0.2-0.2,0.5-0.4,0.6c-0.2,0.9-0.4,1.7-0.6,2.5c-0.7,2.1-1.5,4.2-2.1,6.1
			c-0.7,1.7-1.3,3.4-1.8,5c-0.2,0.6-0.2,1.1-0.4,1.8c-0.2,1.1-0.6,1.6-1.7,2.2c0.7,0.6,0.4,1.3,0.2,2c-0.8,1.4-0.9,2.9-1.3,4.3
			c-0.1,0.2-0.1,0.6-0.2,0.7c-0.2,0.6-0.3,1.3-0.3,2c-0.1,0.6-0.4,1.2-0.6,1.8c-0.2,1-0.6,2.1-1,3.1c-0.2,0.7-0.2,1.4-0.5,2
			c-0.2,0.3-0.6,0.6-0.8,1c0.2,0.3,0.3,0.6,0.5,0.9c-0.2,0.3-0.3,0.6-0.6,0.9c-0.2,0.3-0.3,0.6-0.2,1.1c0.2,0.6,0,1.2,0,1.8
			c-0.1,0.6-0.5,1-0.2,1.6c0.1,0.4-0.3,1.2-0.5,1.8c-0.4,1.3-0.2,2.4,0,3.5c0,0.4,0.2,0.7,0.1,1.1c0.2,0.7,0,1.7,0.6,2.5
			c0.6-0.4,1-0.7,1.5-1.2c1.8-1.6,3.3-3.5,5.1-5.1c1-0.9,1.7-2,2.7-3c0.7-0.7,1.3-1.7,2.1-2.3c1-0.9,1.7-2,2.6-2.8
			c0.1-0.2,0.2-0.4,0.2-0.6c0.4-0.3,0.7-0.7,1-1.1c0.6-1,1.9-1.4,2.2-2.6c0-0.1,0.2-0.3,0.2-0.3c1.2-0.5,1.4-1.8,2.2-2.6
			c0.9-1,1.8-1.9,2.9-3c0.2-0.5,0.7-1,1.2-1.5c1.5-2,3-3.9,4.5-5.9c0.2-0.2,0.6-0.5,0.7-0.7c0.8-1,1.6-2.1,2.6-3
			c0.6-0.6,1-1.1,1.4-1.8c0.4-0.9,0.9-1.7,1.5-2.5c0.7-1.1,1.4-2.1,2.2-3.1c1-1.2,1.9-2.4,2.7-3.7c0.2-0.2,0.4-0.6,0.6-1.1
			c0.2,0.4,0.3,0.7,0.4,1h-0.1c0,0.2-0.1,0.6-0.2,0.8c-1.2,0.8-1.6,2.3-2.3,3.4c-1.4,1.8-2.7,3.8-4.3,5.6c-0.5,0.7-0.8,1.6-1.8,2
			c-0.3,0.2-0.6,1-1,1.4c-0.7,1-1.4,1.8-2.1,2.8c-0.7,0.9-1.6,1.7-2.3,2.6c-1,1.4-2.2,2.9-3.3,4.3c-0.7,1.1-1.8,2.2-2.6,3.2
			c-0.2,0.2-0.2,0.3-0.2,0.6c0,0.1,0,0.2,0,0.2c-0.9-0.1-1,1-1.7,1.4c-0.4,0.2-0.7,1-1,1.5c-0.3,0.2-0.7,0.4-1,0.6
			c-0.3,0.3-0.4,0.7-0.8,1c-0.2,0.2-0.5,0.5-0.3,0.9c0.2,0.3-0.1,0.4-0.3,0.6c-0.1,0.2-0.1,0.4-0.3,0.8c0.4-0.2,0.6-0.3,0.8-0.5
			c0.3-0.3,0.8-0.6,1.1-1c0.2-0.2,0.3-0.6,0.4-0.8c0.7-0.6,1.3-1.2,1.8-1.8c0.9-1,1.8-2,2.7-3c0.7-0.8,1.7-1.4,2.2-2.4
			c0.2-0.5,0.7-0.9,1.2-1.4c0.3-0.4,0.7-0.8,1.2-1.3c0.3-0.7,0.7-1.2,1.6-1.3c0-0.3-0.2-0.6-0.3-0.9c0.3,0,0.6,0,0.8,0
			c0.2-1.1,1-1.4,1.7-2.1c0.2-0.2,0.6-0.4,0.7-0.6c0.4-0.5,0.8-1,1.2-1.5c0.6-0.6,1.1-1,1.4-1.9c0-0.1,0.2-0.3,0.3-0.3
			c0.7-0.4,0.6-0.9,0.3-1.4c0.8-0.6,1.6-1.2,2.5-1.9c-0.2-0.2-0.3-0.4-0.4-0.6c0.5-1,1.2-1.8,2.1-2.5c0.2-0.2,0.3-0.3,0.3-0.5
			c0.1-0.6,0.5-0.7,0.8-1.1c0.4-0.5,0.9-0.9,1.3-1.5c0.3-0.8,1.2-1.4,1.8-2.1c0.9-0.6,1-0.9,0.9-1.9c0.7-0.6,1.3-1.5,1.8-2.4
			c0.2-0.6,0.7-1.4,1.6-1.3c0-0.6,0.1-1.1,0.2-1.7c0,0,0-0.2,0.1-0.2c1.1,0.1,1.5-0.7,1.8-1.6c0.2-0.6,0.5-1.1,1-1.6
			c0.2-0.5,0.6-1.1,0.9-1.8s0.6-1.4,1.4-1.5c-0.2,0.2-0.4,0.4-0.7,0.6c0.1,0.2,0.1,0.3,0.2,0.5c0.1,0.6,0.1,1-0.2,1.6
			c-0.6,0.9-1.1,1.8-1.7,2.7c-0.6,1.2-1.4,2.4-2,3.5c-0.8,1.1-1.4,2.1-2.2,3.1c-0.6,1.1-1.4,2.2-2.1,3.2c-1.4,1.8-2.7,3.5-4,5.3
			c-0.9,1.2-1.7,2.4-2.6,3.5c-0.2,0.2-0.2,0.6-0.4,0.6c-1,0.3-1.3,1.3-1.7,2c-0.1,0.2-0.1,0.4-0.3,0.5c-1.3,0.8-1.7,2.3-2.8,3.3
			c-0.1,0.2-0.2,0.6-0.4,1c1.1-0.4,1.4-1.4,2.2-2.3c0.3,0.3,0.6,0.7,1,1c0.1,0,0.2,0,0.2-0.1c0.1-0.2,0.2-0.5,0.3-0.7
			c-0.3-0.2-0.5-0.2-0.6-0.3c-0.1-0.6,0.2-0.8,1.1-1c0,0.2,0,0.4-0.1,0.7c0.7-0.3,1.3-0.7,1.6-1.4c0.7-1.1,1.4-2,2.3-3
			c0.3-0.3,0.6-0.7,0.4-1.2c0.2-0.1,0.3-0.2,0.4-0.3c0.8-0.2,0.9-0.8,1-1.6c-0.3,0.2-0.6,0.3-1,0.5c0-0.2-0.1-0.4-0.2-0.6
			c1-0.1,0.7-1.8,2.1-1.6c-0.3,0.5-0.6,0.9-0.8,1.3c0.2,0.3,0.5,0.2,0.8-0.2c1.3-1.7,2.6-3.3,3.8-5.1c0.7-1.1,1.7-1.9,2.2-3.1
			c-0.3-0.5-0.3-0.5-1.2-0.5c0.3-0.1,0.7-0.2,1-0.2c0.6-0.1,1.1-0.3,1.4-1c0.2-0.6,0.7-1.2,1.1-1.8c0.2-0.4,0-0.6-0.2-0.9
			c0.2-0.1,0.4-0.1,0.6-0.2c0-0.2-0.1-0.4-0.1-0.6c0.2-0.1,0.6-0.2,1-0.3c-0.2-0.2-0.1-0.3-0.2-0.4c-0.7-0.7-0.7-1.1,0.2-1.8
			c0.2-0.2,0.3-0.4,0.4-0.6c0.4-1,1-1.9,1.7-2.8c0.3-0.4,1-0.6,1-1.4c0-0.2,0.5-0.2,0.8-0.4c-0.3-0.6,0.6-1.2-0.2-1.6
			c0.5-1,1-1.8,2.2-1.2c-0.3-0.9,0.2-1.5,0.4-2.2c0.5-1.1,1.1-2.4,1.8-3.6c-0.3-0.2-0.6-0.3-1-0.6c0.7-0.6,1.5-1.2,2.3-1.9
			c-0.5,0-0.6,0-0.9,0c-0.1-0.8,0.2-1.5,0.6-2.2c0.1-0.2,0.2-0.6,0.3-0.8c0.1-1.7,0.6-3.3,0.9-4.9c0-0.6,0-1-0.3-1.5
			c-0.2,0.2-0.3,0.2-0.3,0.4c-0.4,1.1-0.8,2.3-1.2,3.5c-0.2,0.3-0.3,0.6-0.2,1c-0.1,0.3-0.2,0.8-0.4,1c-0.6,0.6-0.7,1.4-1,2.1
			c-0.1,0.4-0.2,0.7-0.6,0.6c-0.1-0.1-0.2-0.2-0.2-0.2c0.6-1.2,0.8-2.5,1.2-3.8c0.3-1,0.6-2,1-3c0.1-0.4-0.8-0.4-0.2-1
			c0.2-0.2,0.2-0.6,0.2-1c0.1-0.4,0.2-0.8,0.2-1.2c-0.1-0.5-0.1-1-0.2-1.4c-0.2-1.2-0.1-2.5-1-3.3c-0.3-0.3-0.6-0.6-1.1-0.4
			c0.3,0.5,0.7,0.9,1,1.4c0,0.5-1-0.2-0.9,0.7c-0.3,0.1-0.4-0.2-0.5-0.5c-0.3-2.2-1.4-3.8-3.1-4.7c-0.1,0-0.1,0-0.1-0.1
			c0.8-0.3,0.9-0.3,2.7,1.4c0.2-0.2,0.2-0.4,0.3-0.6c1.7,1.3,3.5,2.3,4.1,4.7c0.4,1.2,1,2.2,1,3.6c0,0.1-0.1,0.2,0,0.2
			c1,0.3,0.5,1.2,0.3,1.9c-0.1,0.7-0.3,1.5-0.4,2.2C469.5,101.6,469.5,101.6,470.3,102z M401.5,162.4c-0.4,0.4-0.5,0.8-0.3,1.4
			C401.8,163.3,401.6,162.9,401.5,162.4z M402,159.7c-0.7,1.3-0.7,1.3-0.2,1.7C401.9,160.8,402,160.3,402,159.7z M401.9,167.8
			c-0.4,1-0.2,2-0.1,3.1C402.2,169.9,402.3,168.5,401.9,167.8z M403.1,163c-1.1,0.6-0.8,1.5-1,2.5C403,164.9,402.8,163.9,403.1,163z
			 M402.2,158.5c0.4-0.8,0.6-1.4,1-2.2c-0.2-0.1-0.3-0.2-0.6-0.3c-0.1,0.1-0.2,0.1-0.2,0.2C402.8,156.9,401.8,157.6,402.2,158.5z
			 M403.7,151.7c-0.5,1-0.7,1.9-0.9,2.9c-0.1,0.3-0.1,0.7-0.2,1.2c1-0.6,1-1.4,1.1-2.2c0.1-0.3,0-0.6,0.1-1c0.4-1.1,1-2.2,1-3.5
			c0-0.2,0.2-0.3,0.3-0.6c0-0.3,0.2-0.6,0.2-0.9c0.4-2,0.9-4,1.8-5.9c0.1-0.2,0-0.6-0.1-0.9c-0.1,0-0.2,0-0.3,0
			c-1.3,3.1-1.9,6.3-2.8,9.6c-0.3,0-0.6,0-1,0C403.8,150.7,404,151,403.7,151.7z M403.2,167.7c-0.6,0.7-0.6,0.7-0.2,1.8
			C403,169,403.2,168.3,403.2,167.7z M405.2,154.4c0.4-0.6,0.6-1.2,0.7-1.8c-0.6-0.6,0.4-1.1,0.2-1.8c0.7-0.8,0.6-2,0.8-3
			c0.2-0.6,0.2-1.1,0.7-1.4c-0.2-0.3-0.4-0.6-0.2-1.1c0.3-0.6,0.7-1.1,0.8-1.7c0.2-1.5,0.9-2.8,1.3-4.3c0.2-0.6,0.3-1.2,0.9-1.7
			c-0.1-0.2-0.3-0.4-0.6-0.6c-2.7,7.4-4.7,14.9-6.5,22.3c0.3-0.2,0.6-0.4,0.7-0.7c0.2-0.5,0.2-1,0.5-1.5c0.3-0.7,0.5-1.4,0.3-2.1
			C405,154.7,405.1,154.7,405.2,154.4z M405.5,161.6c-0.2-0.1-0.2-0.2-0.3-0.2c-0.1,0-0.2,0.2-0.2,0.2c0.1,0.1,0.2,0.2,0.2,0.3
			C405.3,161.8,405.4,161.7,405.5,161.6z M406.5,155.9c0.1-0.2,0-0.2-0.2-0.4c-0.1,0.2-0.2,0.2-0.2,0.3c0.1,0.1,0.2,0.2,0.2,0.2
			C406.4,156,406.6,155.9,406.5,155.9z M407.2,154.7c-0.2-0.2-0.4-0.4-0.6-0.5c0-0.1-0.3,0.2-0.3,0.2c0,0.2,0.2,0.4,0.2,0.6
			C406.7,155,407,154.8,407.2,154.7z M407.6,151c-0.7,0.5-0.5,1.1-0.4,1.7C407.7,151.9,407.7,151.9,407.6,151z M407.5,139.2
			c0.6-0.4,0.6-0.4,0.6-1.4C408,138.3,407.3,138.6,407.5,139.2z M408.4,137.2c0.9-0.9,1-2.2,1.4-3.4
			C409.1,134.7,408.3,136.5,408.4,137.2z M410,144.3c0-0.2-0.1-0.3-0.2-0.6c-0.2,0.2-0.3,0.4-0.3,0.5c0,0.2,0.2,0.2,0.2,0.4
			C409.9,144.5,410,144.4,410,144.3z M410.6,136.7c0-1,1.1-1.7,0.6-2.9C410.2,135.5,410,136.2,410.6,136.7z M421.2,164.8
			c-0.4,0-0.6,0.3-0.8,0.7c0,0.1,0.2,0.2,0.2,0.3c0.2-0.2,0.4-0.5,0.6-0.8C421.3,165,421.2,164.9,421.2,164.8z M424.5,161.5
			c0,0.3-0.1,0.6,0,0.7C424.2,162.1,423.9,162,424.5,161.5z M424.5,162.2C424.5,162.3,424.5,162.3,424.5,162.2
			C424.5,162.3,424.5,162.3,424.5,162.2z M434.4,151.7c-0.2,0.3-0.5,0.6-0.7,0.8c0.2,0,0.6,0,0.7-0.1
			C434.7,152.2,434.6,151.9,434.4,151.7z M438.3,153c0.1-0.2,0.2-0.5,0.2-0.6c-1.1,0-1.1,1.2-1.7,1.8c-0.1,0.1,0.1,0.2,0.1,0.3
			C437.5,153.9,437.9,153.5,438.3,153z M437.3,151c0.6,0.2,0.9,0.1,1-0.6C437.8,150.4,437.6,150.6,437.3,151z M439.4,151.3
			c-0.8-0.1-0.7,0.5-0.9,1C438.8,151.9,439.3,151.8,439.4,151.3z M442.6,146.4c-0.1-0.2-0.2-0.4-0.3-0.6c0.5-0.2,0.9-0.4,1.3-0.6
			C443.4,145.7,443.2,146.1,442.6,146.4z M444.5,144.6c-0.5,0.2-0.6,0.3-0.9,0.5c0-0.2,0-0.4-0.1-0.7
			C443.8,144.5,444.1,144.5,444.5,144.6z M444.4,143.1c0.1-0.1,0.1-0.2,0.1-0.2c0.2,0,0.5,0,0.8,0.1c-0.2,0.3-0.3,0.5-0.5,0.8
			C444.6,143.4,444.4,143.3,444.4,143.1z M447.3,140.1c-0.1,0.5-0.2,1-0.4,1.4c-0.3,0.2-0.6,0.2-1.1,0.4c0.5-0.7,1-1.3,1.3-1.8
			C447.1,140.1,447.2,140.1,447.3,140.1z M446.9,141.6L446.9,141.6C446.9,141.6,446.9,141.6,446.9,141.6z M447.9,130.7
			c0.5-0.8,0.5-0.8-0.1-1.7c0.4,0,0.6-0.1,0.7-0.1c0.2-0.6,0.4-1.3,0.7-1.9c0.4,0.3,0.6,0.6,1,0.9c-0.6,0.9-1.4,1.8-2.1,2.8
			C448.2,130.7,448,130.7,447.9,130.7z M450.3,136.3c-0.5,0.2-0.4,1.1-1.2,1C449.6,136,449.6,136,450.3,136.3z M451.3,124.9
			c0.2-1.2,0.7-2.1,1.5-2.8C452.4,122.9,452.8,124.5,451.3,124.9z M452.7,132.6c-0.1,0.6-0.2,1-0.8,1.3
			C451.7,133.4,451.7,133.4,452.7,132.6z M453.2,122.7c0.1,0,0.2,0.2,0.2,0.2c0,0.2-0.1,0.2-0.2,0.5c-0.2-0.2-0.2-0.2-0.2-0.3
			C453.1,122.9,453.2,122.8,453.2,122.7z M460.5,108.5c0.2,0.2,0.2,0.2,0.2,0.2c-0.3,1.2-0.9,2.2-1.4,3.2c-0.2,0.2-0.5,0.3-0.5,0.5
			c-0.2,1-0.8,1.8-1.3,2.6c-0.6,1-1.3,2-2,3.1c-0.3,0.6-0.7,1.3-1.1,2c0.1,0.2,0.1,0.4,0.2,0.6c-0.1,0.3-0.8,0.6-1.4,0.6
			C455.7,116.8,458.5,112.9,460.5,108.5z M454.4,128.8c0.6-0.1,0.7-0.2,1.2-0.2C455.2,129.6,455.2,129.6,454.4,128.8z M455.9,128.2
			c0-0.2-0.2-0.2-0.2-0.4l0.2-0.2c0.2,0.1,0.2,0.2,0.3,0.3C456.2,128,456.1,128.2,455.9,128.2z M457.9,125.6
			c-0.2,0.2-0.4,0.5-0.6,0.7c-0.2-0.1-0.5-0.2-0.6-0.3C457.3,125.5,457.3,125.5,457.9,125.6z M457.3,126.4L457.3,126.4L457.3,126.4z
			 M459.8,124.1c-0.4,0-0.7,0-1.1,0C459,124.5,459.3,124.6,459.8,124.1z M461.2,114.8c0,0.2-0.1,0.4-0.1,0.6c0.2,0,0.3,0,0.5,0
			c0.1,0.1,0.1,0.2,0.1,0.3c0,0.1-0.1,0.2-0.1,0.3c-0.4,0.2-0.9-0.3-1.3,0.3c-0.1,0.3-0.4,0.7-0.6,1c-0.5,0-0.8-0.2-0.5-0.6
			c0.6-0.7,1.1-1.4,1.7-2.2C461,114.7,461.2,114.7,461.2,114.8z M461.8,105.8c0.1,0,0.2,0.1,0.2,0.1c-0.2,0.3-0.5,0.7-0.6,1.1
			c0,0.4-0.1,0.8-0.7,1C461.1,107.3,461.4,106.6,461.8,105.8z M462,113.2c-0.1,0-0.3,0.1-0.5,0.1c0,0,0-0.2,0-0.2
			c0.2-0.1,0.4-0.2,0.5-0.2C462.1,113,462.1,113.1,462,113.2z M463.4,101.5c0.1,0,0.2,0,0.2,0.1c-0.3,1-0.6,2.1-1,3.1
			c-0.1,0.2-0.2,0.4-0.4,0.6c-0.1-0.1-0.2-0.1-0.2-0.2C462.6,103.9,463,102.7,463.4,101.5z M463.4,109.9c0.2,1,0.2,1-0.5,1.8
			c-0.1-0.2-0.2-0.6-0.4-0.8C462.9,110.6,463.1,110.3,463.4,109.9z M463.9,109.3c-0.2,0.2-0.3,0.2-0.4,0.3c0,0-0.1-0.2-0.2-0.3
			c0.3-0.1,0.4-0.2,0.6-0.2C463.8,109,463.9,109.2,463.9,109.3z M463.8,100.7c0.2-0.2,0.3-0.2,0.5-0.4c0,0.1,0.1,0.1,0.1,0.2
			c-0.1,0.1-0.3,0.2-0.4,0.3C463.8,100.8,463.8,100.7,463.8,100.7z M464.6,98c-0.1,0.5-0.1,0.8-0.2,1
			C464.2,99.1,464.2,98.9,464.6,98z M465.1,93.3c0-0.2,0.2-0.3,0.2-0.5c0.3,0.4,0.6,0.8,0.3,1.4c-0.5,1,0,2.2-1,3.1
			C464.8,96,465,94.7,465.1,93.3z M464.7,106.6c0.5-0.2,0.6-0.2,0.9-0.3c0.1,0.1,0.1,0.2,0.1,0.2c-0.1,0.2-0.2,0.3-0.3,0.3
			C465.3,106.9,465.1,106.7,464.7,106.6z M466.3,109.8c-0.2,0.6-0.6,1.2-0.9,1.8c-0.1-0.1-0.1-0.1-0.2-0.1c0.2-0.6,0.6-1.3,0.9-1.8
			C466.2,109.7,466.2,109.8,466.3,109.8z"/>
	</g>
	<g>
		<path class="st7" d="M126.9,105.7v124.9h-17v-46l-50.4,13.6v32.4h-17v-65.8c0-8,1.5-15.6,4.5-22.8c3-7.2,7.3-13.5,12.8-19.1
			c5.5-5.5,11.9-9.8,19.1-12.8c7.2-3,14.8-4.5,22.8-4.5H126.9z M110,122.7h-8.3c-7.6,0-14.7,1.9-21.1,5.6
			c-6.5,3.8-11.6,8.9-15.3,15.3c-3.8,6.4-5.7,13.4-5.7,21.1v15.8L110,167V122.7z"/>
		<path class="st7" d="M219,122.7h-33.7v107.9h-17V122.7h-33.5v-17H219V122.7z"/>
		<path class="st7" d="M298.9,105.7v124.9h-17v-46l-50.4,13.6v32.4h-17v-65.8c0-8,1.5-15.6,4.5-22.8c3-7.2,7.3-13.5,12.8-19.1
			c5.5-5.5,11.9-9.8,19.1-12.8c7.2-3,14.8-4.5,22.8-4.5H298.9z M281.9,122.7h-8.3c-7.6,0-14.7,1.9-21.1,5.6
			c-6.5,3.8-11.6,8.9-15.3,15.3c-3.8,6.4-5.7,13.4-5.7,21.1v15.8l50.4-13.6V122.7z"/>
		<path class="st7" d="M393.9,188.3c0,7.7-1.9,14.8-5.6,21.3c-3.8,6.5-8.9,11.6-15.3,15.3c-6.4,3.8-13.4,5.7-21.1,5.7h-42.2V105.7
			h17v107.9h25.3c3.3,0,6.5-0.6,9.6-1.9c3.1-1.3,5.8-3.1,8.2-5.5c2.4-2.4,4.2-5.1,5.4-8.1c1.2-3,1.9-6.3,1.9-9.7H393.9z"/>
	</g>
	<linearGradient id="SVGID_4_" gradientUnits="userSpaceOnUse" x1="29.5564" y1="215.9972" x2="89.6066" y2="215.9972">
		<stop  offset="0" style="stop-color:#3DB683"/>
		<stop  offset="1" style="stop-color:#3AB0FF"/>
	</linearGradient>
	<path class="st8" d="M87.9,239.3H34v-49.4c0-0.9-0.8-1.7-1.7-1.7h-1c-0.9,0-1.7,0.8-1.7,1.7v53.9H34h53.9c0.9,0,1.7-0.8,1.7-1.7v-1
		C89.6,240.1,88.8,239.3,87.9,239.3z"/>
</g>
</svg>
